<?xml version="1.0" standalone="no"?><!DOCTYPE svg PUBLIC "-//W3C//DTD SVG 1.1//EN" "http://www.w3.org/Graphics/SVG/1.1/DTD/svg11.dtd"><svg class="icon" width="200px" height="200.00px" viewBox="0 0 1024 1024" version="1.1" xmlns="http://www.w3.org/2000/svg"><path fill="#000000" d="M170.951111 499.38963m-42.666667 0a42.666667 42.666667 0 1 0 85.333334 0 42.666667 42.666667 0 1 0-85.333334 0Z"  /><path fill="#000000" d="M170.951111 570.500741c-39.253333 0-71.111111-31.857778-71.111111-71.111111s31.857778-71.111111 71.111111-71.111111 71.111111 31.857778 71.111111 71.111111-31.857778 71.111111-71.111111 71.111111z m0-85.333334c-7.86963 0-14.222222 6.352593-14.222222 14.222223s6.352593 14.222222 14.222222 14.222222 14.222222-6.352593 14.222222-14.222222-6.352593-14.222222-14.222222-14.222223z"  /><path fill="#000000" d="M500.906667 499.38963m-42.666667 0a42.666667 42.666667 0 1 0 85.333333 0 42.666667 42.666667 0 1 0-85.333333 0Z"  /><path fill="#000000" d="M500.906667 570.500741c-39.253333 0-71.111111-31.857778-71.111111-71.111111s31.857778-71.111111 71.111111-71.111111 71.111111 31.857778 71.111111 71.111111-31.857778 71.111111-71.111111 71.111111z m0-85.333334c-7.86963 0-14.222222 6.352593-14.222223 14.222223s6.352593 14.222222 14.222223 14.222222 14.222222-6.352593 14.222222-14.222222-6.352593-14.222222-14.222222-14.222223z"  /><path fill="#000000" d="M853.617778 499.38963m-42.666667 0a42.666667 42.666667 0 1 0 85.333333 0 42.666667 42.666667 0 1 0-85.333333 0Z"  /><path fill="#000000" d="M853.617778 570.500741c-39.253333 0-71.111111-31.857778-71.111111-71.111111s31.857778-71.111111 71.111111-71.111111 71.111111 31.857778 71.111111 71.111111-31.857778 71.111111-71.111111 71.111111z m0-85.333334c-7.86963 0-14.222222 6.352593-14.222222 14.222223s6.352593 14.222222 14.222222 14.222222 14.222222-6.352593 14.222222-14.222222-6.352593-14.222222-14.222222-14.222223z"  /></svg>